<?xml version="1.0" encoding="utf-8"?>
<!-- Generator: Adobe Illustrator 16.0.4, SVG Export Plug-In . SVG Version: 6.00 Build 0)  -->
<!DOCTYPE svg PUBLIC "-//W3C//DTD SVG 1.1//EN" "http://www.w3.org/Graphics/SVG/1.1/DTD/svg11.dtd">
<svg version="1.1" id="Layer_1" xmlns="http://www.w3.org/2000/svg" xmlns:xlink="http://www.w3.org/1999/xlink" x="0px" y="0px"
	 width="96.475px" height="39.581px" viewBox="0 0 96.475 39.581" enable-background="new 0 0 96.475 39.581" xml:space="preserve">
<g>
	<path fill="#475E76" d="M93.667,14.52v-2.054h0.908c0.183,0,0.323,0.019,0.418,0.055c0.096,0.037,0.172,0.103,0.228,0.196
		c0.059,0.093,0.087,0.196,0.087,0.31c0,0.146-0.048,0.269-0.142,0.368c-0.095,0.101-0.24,0.164-0.438,0.191
		c0.072,0.033,0.127,0.068,0.164,0.101c0.079,0.073,0.154,0.164,0.225,0.274l0.356,0.559h-0.34l-0.272-0.428
		c-0.078-0.124-0.145-0.217-0.196-0.283c-0.05-0.066-0.097-0.111-0.138-0.138c-0.04-0.026-0.081-0.043-0.123-0.055
		c-0.03-0.006-0.081-0.009-0.151-0.009h-0.315v0.912H93.667z M93.937,13.372h0.584c0.124,0,0.222-0.013,0.292-0.039
		c0.069-0.025,0.123-0.066,0.159-0.123c0.037-0.056,0.057-0.118,0.057-0.184c0-0.096-0.036-0.177-0.107-0.239
		c-0.07-0.062-0.181-0.093-0.334-0.093h-0.65V13.372z"/>
</g>
<path fill="none" d="M0,0.017v3.681h21.704v7.476h-7.698v7.139h6.917v7.921h-7.028V39.51l-8.983,0.071h91.54V0.017H0z M33.865,31.7
	H23.823V12.176h10.042V31.7z M29.18,10.726c-2.863,0.035-5.193-2.296-5.243-5.131c0.05-2.915,2.38-5.247,5.243-5.244
	c2.888-0.002,5.22,2.329,5.244,5.244C34.4,8.43,32.067,10.761,29.18,10.726z M54.616,31.7l-6.918-7.697V31.7H37.659V3.586h10.039
	v15.731c2.692-1.955,5.204-4.93,7.81-7.029h10.6l-8.368,7.921l10.6,11.491H54.616z M80.275,28.019
	c1.446-0.43,2.282-2.104,2.566-3.348h10.264c-2.46,5.149-8.131,7.473-12.83,7.809c-5.34,0.408-11.011-1.732-14.391-6.357
	c-1.178-2.253-1.55-5.415-0.448-7.699c2.619-4.965,7.823-7.477,13.276-7.698c5.472-0.056,14.352,3.057,14.616,12.049H74.81
	C74.749,24.334,76.515,29.31,80.275,28.019z M94.444,15.301c-1.013-0.031-1.846-0.863-1.896-1.896
	c0.051-1.02,0.884-1.853,1.896-1.897c1.039,0.044,1.873,0.877,1.897,1.897C96.317,14.438,95.483,15.27,94.444,15.301z"/>
<polygon fill="none" points="0,0 0,0.017 96.452,0.017 96.452,39.581 96.458,39.581 96.458,0 "/>
<path fill="#475E76" d="M78.712,10.726c-5.453,0.221-10.657,2.733-13.276,7.698c-1.102,2.285-0.729,5.446,0.448,7.699
	c3.38,4.625,9.051,6.766,14.391,6.357c4.699-0.336,10.37-2.66,12.83-7.809H82.841c-0.284,1.244-1.12,2.917-2.566,3.348
	c-3.76,1.291-5.526-3.685-5.465-5.244h18.519C93.064,13.783,84.184,10.67,78.712,10.726z M74.699,19.764
	c0.096-1.658,0.56-3.332,2.005-4.351c1.718-1.444,4.04-1.257,5.469,0.223c0.943,1.169,1.595,2.563,1.56,4.128
	C81.21,19.733,81.86,19.733,74.699,19.764z"/>
<path fill="#475E76" d="M66.107,12.288h-10.6c-2.606,2.099-5.118,5.074-7.81,7.029V3.586H37.659V31.7h10.039v-7.697l6.918,7.697
	h13.723l-10.6-11.491L66.107,12.288z"/>
<polygon fill="#475E76" points="13.895,26.234 20.922,26.234 20.922,18.313 14.006,18.313 14.006,11.174 21.704,11.174 
	21.704,3.698 0,3.698 0,39.581 13.895,39.556 "/>
<path fill="#475E76" d="M23.823,31.7h10.042V12.176H23.823V31.7z"/>
<path fill="#475E76" d="M29.18,0.351c-2.863-0.002-5.193,2.329-5.243,5.244c0.05,2.835,2.38,5.166,5.243,5.131
	c2.888,0.035,5.22-2.296,5.244-5.131C34.4,2.68,32.067,0.349,29.18,0.351z"/>
<circle fill="none" stroke="#475E76" stroke-width="0.3" stroke-miterlimit="3.8637" cx="94.466" cy="13.495" r="1.859"/>
</svg>
